<?xml version="1.0" standalone="yes"?>
<svg xmlns="http://www.w3.org/2000/svg" width="141" height="62">
<path style="fill:#ffffff; stroke:none;" d="M0 0L0 13C21.5629 13.1952 21.5591 42.4932 0 43L0 62L38 62L38 61C32.4186 56.5757 31.2291 45.6384 41 45.3765C50.8878 45.1116 49.5479 56.7734 44 61L44 62L141 62L141 23C131.574 30.6074 134.859 34.0947 140 43C133.757 42.7974 130.687 39.8214 127 35L126 35C125.869 39.0301 121.392 46.4492 119.318 38.9406C117.207 31.297 119 20.9255 119 13L126 13L126 30C131.404 25.8716 133.724 22.0859 141 22L141 0L0 0z"/>
<path style="fill:#d70b29; stroke:none;" d="M22.3071 13.1366C18.5242 15.2264 21.9518 21.0834 25.6713 18.9144C29.2912 16.8034 25.9024 11.1505 22.3071 13.1366M0 13L0 20C12.2866 19.9363 11.0359 33.9954 0 36L0 43C22.0439 42.8029 22.0186 13.0632 0 13M56.6034 14.0463C53.4475 16.4373 57.2145 21.3646 60.3966 18.9537C63.5525 16.5627 59.7855 11.6354 56.6034 14.0463M119 13C119 21.0805 117.017 32.1054 119.318 39.8519C121.586 47.4851 125.957 38.6135 126 35L127 35C130.005 40.7726 133.574 42.9241 140 43C135.387 32.1011 134.433 32.5007 141 22C133.567 22.0263 130.917 24.6804 126 30L126 13L119 13M67 16L67 43L73 43L73 27L77 27L77 22L73 22L73 16L67 16z"/>
<path style="fill:#d50f2b; stroke:none;" d="M2 19L3 20L2 19z"/>
<path style="fill:#010101; stroke:none;" d="M0 20L0 36C11.956 34.6676 12.4753 20.6834 0 20z"/>
<path style="fill:#d70b29; stroke:none;" d="M104 43L110 43C110 36.606 108.93 29.5763 116 27L116 20C102.65 21.2112 104 32.5957 104 43M39.0039 21.598C24.9495 24.633 30.008 46.3388 43.9992 42.5656C57.005 39.0581 52.0343 18.7841 39.0039 21.598M21 22L21 43L27 43L27 22L21 22M55 22L55 43C65.3439 42.6603 62 29.7089 62 22L55 22M80 22C80 26.8442 78.8292 33.5504 81.179 37.956C84.7072 44.571 95.4233 44.6099 98.9722 37.956C101.262 33.6626 100 26.7368 100 22L94 22C94 37.9331 86 37.9331 86 22L80 22z"/>
<path style="fill:#010101; stroke:none;" d="M39.314 29.0864C35.3379 31.3462 38.4633 37.9751 42.686 35.7122C46.7078 33.5569 43.4504 26.7356 39.314 29.0864z"/>
<path style="fill:#ff0101; stroke:none;" d="M7 33L8 34L7 33M42 36L43 37L42 36z"/>
<path style="fill:#d50f2b; stroke:none;" d="M137 38L138 39L137 38z"/>
<path style="fill:#d70b29; stroke:none;" d="M38.0193 45.7431C28.5103 49.4715 34.0918 65.0584 43.9807 61.2539C53.5384 57.5767 48.113 41.7853 38.0193 45.7431z"/>
<path style="fill:#d50f2b; stroke:none;" d="M41 50L42 51L41 50z"/>
<path style="fill:#010101; stroke:none;" d="M39.6427 52.0671C37.4527 53.6896 40.4036 56.3802 42.3573 54.9329C44.5473 53.3104 41.5964 50.6198 39.6427 52.0671z"/>
<path style="fill:#d50f2b; stroke:none;" d="M40.6667 56.3333L41.3333 56.6667L40.6667 56.3333z"/>
</svg>
