<?xml version="1.0" encoding="UTF-8"?>
<svg width="77px" height="69px" viewBox="0 0 77 69" version="1.1" xmlns="http://www.w3.org/2000/svg" xmlns:xlink="http://www.w3.org/1999/xlink">
    <!-- Generator: sketchtool 52.5 (67469) - http://www.bohemiancoding.com/sketch -->
    <title>9D3BA2EA-05FE-4F52-97FD-F586BFB4A66E</title>
    <desc>Created with sketchtool.</desc>
    <g id="Desktop" stroke="none" stroke-width="1" fill="none" fill-rule="evenodd">
        <g id="Subpage-5.3" transform="translate(-181.000000, -933.000000)" fill="#5E2F8C">
            <g id="Group-7" transform="translate(135.000000, 907.000000)">
                <g id="icon/40_yeni_film" transform="translate(47.000000, 26.000000)">
                    <path d="M29.7857143,67.5714286 C13.3571429,67.5714286 -6.23501251e-12,54.2142857 -6.23501251e-12,37.7857143 C-6.23501251e-12,21.3571429 13.3571429,8 29.7857143,8 C46.2142857,8 59.5714286,21.3571429 59.5714286,37.7857143 C59.5714286,49.6428571 52.5714286,59.9285714 42.5,64.7142857 L63.4285714,64.7142857 L63.4285714,67.5714286 L29.7857143,67.5714286 Z M29.7857143,10.8571429 C14.9285714,10.8571429 2.85714286,22.9285714 2.85714286,37.7857143 C2.85714286,52.6428571 14.9285714,64.7142857 29.7857143,64.7142857 C44.6428571,64.7142857 56.7142857,52.6428571 56.7142857,37.7857143 C56.7142857,22.9285714 44.6428571,10.8571429 29.7857143,10.8571429 Z M19.5714286,34.5 C17.7142857,34.5 16,33.7857143 14.6428571,32.5714286 C11.9285714,29.8571429 11.9285714,25.5 14.6428571,22.7857143 C17.3571429,20.0714286 21.7142857,20.0714286 24.4285714,22.7857143 C25.7142857,24.0714286 26.4285714,25.8571429 26.4285714,27.6428571 C26.4285714,29.4285714 25.7142857,31.2142857 24.4285714,32.5 C23.1428571,33.7857143 21.4285714,34.5 19.5714286,34.5 Z M16.7142857,24.7142857 C15.0714286,26.2857143 15.0714286,28.8571429 16.7142857,30.4285714 C17.5,31.2142857 18.5,31.6428571 19.5714286,31.6428571 C20.6428571,31.6428571 21.6428571,31.2142857 22.4285714,30.4285714 C23.2142857,29.6428571 23.6428571,28.6428571 23.6428571,27.5714286 C23.6428571,26.5 23.2142857,25.5 22.4285714,24.7142857 C21.6428571,23.9285714 20.6428571,23.5 19.5714286,23.5 C18.5714286,23.5 17.5,23.9285714 16.7142857,24.7142857 Z M35.1428571,43.1428571 C37.7857143,40.4285714 42.2142857,40.4285714 44.8571429,43.1428571 C47.5714286,45.8571429 47.5714286,50.2142857 44.8571429,52.9285714 C43.5714286,54.2857143 41.7857143,54.9285714 40,54.9285714 C38.2857143,54.9285714 36.5,54.2857143 35.1428571,52.9285714 C32.4285714,50.2142857 32.4285714,45.8571429 35.1428571,43.1428571 Z M42.8571429,50.8571429 C44.4285714,49.2857143 44.4285714,46.7142857 42.8571429,45.1428571 C42.0714286,44.3571429 41.0714286,43.9285714 40,43.9285714 C39,43.9285714 37.9285714,44.3571429 37.1428571,45.1428571 C35.5714286,46.7142857 35.5714286,49.2857143 37.1428571,50.8571429 C38.7142857,52.4285714 41.2857143,52.4285714 42.8571429,50.8571429 Z M40,34.5 C38.2142857,34.5 36.5,33.7857143 35.0714286,32.5 C33.7857143,31.2142857 33.0714286,29.4285714 33.0714286,27.6428571 C33.0714286,25.8571429 33.7857143,24.0714286 35.0714286,22.7857143 C37.7857143,20.0714286 42.1428571,20.0714286 44.8571429,22.7857143 C46.1428571,24.0714286 46.8571429,25.8571429 46.8571429,27.6428571 C46.8571429,29.4285714 46.1428571,31.2142857 44.8571429,32.5 C43.5714286,33.8571429 41.7857143,34.5 40,34.5 Z M37.1428571,24.7142857 C36.3571429,25.4285714 35.9285714,26.5 35.9285714,27.5714286 C35.9285714,28.6428571 36.3571429,29.6428571 37.1428571,30.4285714 C38.7142857,32 41.2857143,32 42.8571429,30.4285714 C43.6428571,29.6428571 44.0714286,28.6428571 44.0714286,27.5714286 C44.0714286,26.5 43.6428571,25.5 42.8571429,24.7142857 C42.0714286,23.9285714 41.0714286,23.5 40,23.5 C39,23.5 37.9285714,23.9285714 37.1428571,24.7142857 Z M19.5714286,41.0714286 C21.4285714,41.0714286 23.1428571,41.7857143 24.4285714,43.1428571 C27.1428571,45.8571429 27.1428571,50.2142857 24.4285714,52.9285714 C23.1428571,54.2142857 21.4285714,54.9285714 19.5714286,54.9285714 C17.7142857,54.9285714 16,54.2142857 14.7142857,52.8571429 C12,50.1428571 12,45.7857143 14.7142857,43.0714286 C16,41.7857143 17.7142857,41.0714286 19.5714286,41.0714286 Z M22.4285714,50.8571429 C24,49.2857143 24,46.7142857 22.4285714,45.1428571 C21.6428571,44.3571429 20.6428571,43.9285714 19.5714286,43.9285714 C18.5,43.9285714 17.5,44.3571429 16.7142857,45.1428571 C15.1428571,46.7142857 15.1428571,49.2857143 16.7142857,50.8571429 C17.5,51.6428571 18.5,52.0714286 19.5714286,52.0714286 C20.6428571,52.0714286 21.6428571,51.6428571 22.4285714,50.8571429 Z M29.7857143,40.6428571 C28.2077579,40.6428571 26.9285714,39.3636707 26.9285714,37.7857143 C26.9285714,36.2077579 28.2077579,34.9285714 29.7857143,34.9285714 C31.3636707,34.9285714 32.6428571,36.2077579 32.6428571,37.7857143 C32.6428571,39.3636707 31.3636707,40.6428571 29.7857143,40.6428571 Z" stroke="#5E2F8C" fill-rule="nonzero"></path>
                    <path d="M73,13.5 C65.5878459,14.6207809 64.8767204,15.5294118 63.9996991,25 C63.1226778,15.5294118 62.4115523,14.6207809 55,13.5 C62.4117529,12.3788107 63.1228784,11.4705882 63.9996991,2 C64.8767204,11.4705882 65.5878459,12.3790149 73,13.5 Z" id="Path"></path>
                    <path d="M76,5 C72.7056197,5.48728728 72.3900038,5.88241239 71.9998985,10 C71.6101992,5.88241239 71.2939744,5.48708517 68,5 C71.2939744,4.51251061 71.6101992,4.11758761 71.9998985,0 C72.3900038,4.11758761 72.7056197,4.51251061 76,5 Z" id="Path"></path>
                </g>
            </g>
        </g>
    </g>
</svg>