<?xml version="1.0" encoding="UTF-8"?>
<svg width="55px" height="60px" viewBox="0 0 55 60" version="1.1" xmlns="http://www.w3.org/2000/svg" xmlns:xlink="http://www.w3.org/1999/xlink">
    <!-- Generator: sketchtool 52.5 (67469) - http://www.bohemiancoding.com/sketch -->
    <title>4F682AE3-B319-4C7B-BD64-0E9082AB0926</title>
    <desc>Created with sketchtool.</desc>
    <g id="Desktop" stroke="none" stroke-width="1" fill="none" fill-rule="evenodd">
        <g id="Subpage-5.2" transform="translate(-193.000000, -809.000000)" fill="#5E2F8C" fill-rule="nonzero">
            <g id="Group-6" transform="translate(135.000000, 779.000000)">
                <g id="image/children" transform="translate(58.000000, 30.000000)">
                    <path d="M0,16.25 L0,18 C0,18.379 0.214,18.725 0.553,18.895 C0.694,18.965 0.848,19 1,19 C1.212,19 1.424,18.933 1.6,18.8 L5.6,15.8 L4.4,14.2 L2.005,15.995 C2.09,14.275 3.023,12.716 4.456,11.812 C4.473,11.865 4.501,11.913 4.519,11.965 C4.634,12.294 4.762,12.616 4.913,12.928 C4.948,13 4.989,13.069 5.026,13.141 C5.182,13.441 5.349,13.733 5.537,14.013 C5.591,14.094 5.651,14.171 5.708,14.25 C5.893,14.506 6.087,14.755 6.298,14.99 C6.381,15.083 6.469,15.17 6.556,15.259 C6.757,15.465 6.964,15.663 7.185,15.85 C7.234,15.891 7.274,15.94 7.324,15.98 L7.334,15.967 C7.816,16.357 8.332,16.709 8.897,16.998 L7,16.998 L5.509,16.998 C4.177,16.998 2.99,17.893 2.624,19.174 L1.038,24.724 C0.952,25.026 1.013,25.35 1.201,25.601 C1.391,25.853 1.687,26 2,26 L2,29.886 L0.941,34.455 C0.64,35.271 0.693,36.177 1.09,36.954 C1.432,37.623 2.009,38.127 2.694,38.406 L1.065,42.641 C0.947,42.949 0.988,43.295 1.174,43.567 C1.36,43.839 1.671,44 2,44 L6,44 L6,55 C6,55.109 6.03,55.209 6.062,55.307 C5.409,56.019 5,56.959 5,58 L5,59 C5,59.553 5.447,60 6,60 L12,60 C12.553,60 13,59.553 13,59 C13,59.553 13.447,60 14,60 L20,60 C20.553,60 21,59.553 21,59 L21,58 C21,56.96 20.591,56.019 19.938,55.307 C19.97,55.209 20,55.109 20,55 L20,44 L24,44 C24.329,44 24.638,43.838 24.824,43.566 C25.01,43.294 25.052,42.948 24.933,42.64 L23.304,38.405 C23.99,38.125 24.566,37.622 24.908,36.953 C25.305,36.176 25.358,35.27 25.057,34.454 L24,29.886 L24,26 C24.313,26 24.609,25.853 24.799,25.603 C24.987,25.352 25.048,25.028 24.962,24.726 L23.376,19.176 C23.01,17.895 21.823,17 20.491,17 L19,17 L17.102,17 C17.667,16.711 18.183,16.359 18.665,15.969 L18.675,15.982 C18.725,15.942 18.765,15.893 18.814,15.852 C19.035,15.665 19.242,15.467 19.443,15.261 C19.53,15.172 19.618,15.085 19.701,14.992 C19.913,14.756 20.106,14.508 20.291,14.252 C20.348,14.173 20.408,14.096 20.462,14.015 C20.65,13.735 20.818,13.443 20.973,13.143 C21.01,13.072 21.051,13.003 21.086,12.93 C21.237,12.618 21.365,12.296 21.48,11.967 C21.498,11.915 21.525,11.866 21.543,11.814 C22.977,12.717 23.909,14.277 23.994,15.997 L21.6,14.2 L20.4,15.8 L24.4,18.8 C24.576,18.933 24.787,19 25,19 C25.152,19 25.306,18.965 25.447,18.895 C25.786,18.725 26,18.379 26,18 L26,16.25 C26,13.482 24.394,10.979 21.946,9.77 C21.968,9.514 22,9.26 22,9 C22,4.037 17.963,0 13,0 C8.037,0 4,4.037 4,9 C4,9.26 4.032,9.514 4.054,9.77 C1.606,10.979 0,13.482 0,16.25 Z M11,19.843 C11.639,20.106 12.319,20.24 13,20.24 C13.681,20.24 14.361,20.106 15,19.843 L15,23 L11,23 L11,19.843 Z M4.548,19.725 C4.669,19.298 5.064,19 5.509,19 L6,19 L6,24 L3.326,24 L4.548,19.725 Z M4.338,34.134 L3.407,36.554 C3.177,36.451 2.99,36.275 2.871,36.043 C2.723,35.752 2.707,35.424 2.829,35.119 C2.848,35.072 2.863,35.023 2.875,34.973 L3.975,30.225 C3.991,30.151 4,30.076 4,30 L4,26 L6,26 L6,29.813 L4.338,34.134 Z M10,54 L8,54 L8,44 L10,44 L10,54 Z M7,58 C7,56.897 7.897,56 9,56 C10.103,56 11,56.897 11,58 L7,58 Z M13,58 C13,56.96 12.591,56.019 11.938,55.307 C11.97,55.209 12,55.109 12,55 L12,44 L14,44 L14,55 C14,55.109 14.03,55.209 14.062,55.307 C13.409,56.019 13,56.959 13,58 Z M15,58 C15,56.897 15.897,56 17,56 C18.103,56 19,56.897 19,58 L15,58 Z M18,54 L16,54 L16,44 L18,44 L18,54 Z M19,42 L15,42 L11,42 L7,42 L3.456,42 L4.999,37.989 C4.999,37.989 4.999,37.989 4.999,37.988 L6.205,34.852 L7.687,31 L18.314,31 L19.796,34.852 L21.002,37.988 C21.002,37.988 21.002,37.988 21.002,37.989 L22.544,42 L19,42 Z M22.025,30.226 L23.125,34.974 C23.137,35.024 23.152,35.073 23.171,35.12 C23.293,35.425 23.277,35.753 23.129,36.044 C23.01,36.275 22.825,36.451 22.592,36.554 L21.994,34.999 L21.662,34.135 L20,29.813 L20,26 L22,26 L22,30 C22,30.076 22.009,30.151 22.025,30.226 Z M21.452,19.725 L22.674,24 L20,24 L20,19 L20.491,19 C20.936,19 21.331,19.298 21.452,19.725 Z M18,29 L8,29 L8,19 L9,19 L9,24 C9,24.553 9.447,25 10,25 L16,25 C16.553,25 17,24.553 17,24 L17,19 L18,19 L18,29 Z M15.624,15.486 C15.247,15.64 15,16.006 15,16.413 L15,17.532 C13.828,18.458 12.172,18.458 11,17.532 L11,16.413 C11,16.006 10.753,15.64 10.376,15.486 C9.717,15.219 9.117,14.861 8.586,14.431 L8.587,14.43 C8.272,14.174 7.985,13.889 7.722,13.586 C7.685,13.544 7.654,13.498 7.619,13.455 C7.401,13.191 7.202,12.913 7.025,12.621 C6.987,12.559 6.952,12.495 6.916,12.431 C6.752,12.139 6.609,11.836 6.488,11.523 C6.465,11.464 6.44,11.406 6.419,11.346 C6.29,10.984 6.187,10.612 6.12,10.23 C6.106,10.153 6.087,10.077 6.076,9.999 L9.879,9.999 C11.515,9.999 13.053,9.362 14.209,8.205 L15.618,6.797 C16.5,8.429 18.09,9.57 19.934,9.895 C19.92,10.008 19.902,10.119 19.882,10.23 C19.814,10.612 19.711,10.984 19.583,11.346 C19.562,11.406 19.536,11.465 19.513,11.524 C19.392,11.837 19.249,12.14 19.085,12.431 C19.049,12.495 19.014,12.559 18.976,12.621 C18.8,12.913 18.6,13.19 18.383,13.454 C18.347,13.497 18.316,13.544 18.279,13.586 C18.016,13.889 17.729,14.173 17.414,14.429 L17.415,14.43 C16.883,14.861 16.283,15.219 15.624,15.486 Z M13,2 C16.462,2 19.338,4.53 19.895,7.836 C18.493,7.446 17.366,6.344 16.999,4.873 L16.969,4.754 C16.881,4.405 16.612,4.131 16.265,4.036 C15.921,3.938 15.548,4.037 15.293,4.293 L12.794,6.792 C12.026,7.56 10.963,8 9.878,8 L6.08,8 C6.568,4.614 9.481,2 13,2 Z" id="Shape"></path>
                    <path d="M35.509,17 C34.177,17 32.99,17.895 32.624,19.176 L31.038,24.726 C30.952,25.028 31.013,25.352 31.201,25.603 C31.391,25.853 31.687,26 32,26 L32,29.929 L31.575,32.9 C31.392,34.183 31.774,35.481 32.624,36.461 C33.2,37.125 33.958,37.577 34.787,37.812 L34.012,42.849 C33.967,43.138 34.051,43.431 34.241,43.653 C34.431,43.873 34.708,44 35,44 L36,44 L36,55 C36,55.109 36.03,55.209 36.062,55.307 C35.409,56.019 35,56.959 35,58 L35,59 C35,59.553 35.447,60 36,60 L42,60 C42.553,60 43,59.553 43,59 C43,59.553 43.447,60 44,60 L50,60 C50.553,60 51,59.553 51,59 L51,58 C51,56.96 50.591,56.019 49.938,55.307 C49.97,55.209 50,55.109 50,55 L50,44 L51,44 C51.292,44 51.569,43.873 51.759,43.651 C51.949,43.429 52.033,43.136 51.988,42.847 L51.213,37.81 C52.041,37.575 52.799,37.123 53.376,36.459 C54.226,35.48 54.607,34.182 54.425,32.897 L54,29.929 L54,26 C54.313,26 54.609,25.853 54.799,25.603 C54.987,25.352 55.048,25.028 54.962,24.726 L53.376,19.176 C53.01,17.895 51.823,17 50.491,17 L49,17 L47.118,17 C50.108,15.466 52,12.408 52,9 C52,4.037 47.963,0 43,0 C38.037,0 34,4.037 34,9 C34,12.408 35.892,15.466 38.882,17 L37,17 L35.509,17 Z M43,20.414 L45.293,22.707 C45.486,22.9 45.742,23 46,23 C46.192,23 46.386,22.945 46.555,22.832 L48,21.868 L48,29 L44,29 L44,22 L42,22 L42,29 L38,29 L38,21.868 L39.445,22.832 C39.841,23.098 40.369,23.045 40.707,22.707 L43,20.414 Z M49,42 L45,42 L44,42 L44,36 L42,36 L42,42 L41,42 L37,42 L36.166,42 L37.858,31 L48.142,31 L49.834,42 L49,42 Z M34.548,19.725 C34.669,19.298 35.064,19 35.509,19 L36,19 L36,24 L33.326,24 L34.548,19.725 Z M34.135,35.149 C33.666,34.607 33.454,33.89 33.556,33.181 L33.991,30.141 C33.997,30.095 34,30.047 34,30 L34,26 L36,26 L36,29.924 L35.093,35.817 C34.73,35.672 34.398,35.452 34.135,35.149 Z M40,44 L40,54 L38,54 L38,44 L40,44 Z M37,58 C37,56.897 37.897,56 39,56 C40.103,56 41,56.897 41,58 L37,58 Z M43,58 C43,56.96 42.591,56.019 41.938,55.307 C41.97,55.209 42,55.109 42,55 L42,44 L44,44 L44,55 C44,55.109 44.03,55.209 44.062,55.307 C43.409,56.019 43,56.959 43,58 Z M45,58 C45,56.897 45.897,56 47,56 C48.103,56 49,56.897 49,58 L45,58 Z M48,54 L46,54 L46,44 L48,44 L48,54 Z M52.01,30.142 L52.445,33.181 C52.547,33.891 52.335,34.608 51.866,35.15 C51.603,35.452 51.271,35.673 50.907,35.817 L50,29.924 L50,26 L52,26 L52,30 C52,30.047 52.003,30.095 52.01,30.142 Z M51.452,19.725 L52.674,24 L50,24 L50,19 L50.491,19 C50.936,19 51.331,19.298 51.452,19.725 Z M48,19 L48,19.465 L46.127,20.713 L44.851,19.437 L46.161,19 L48,19 Z M43,2 C46.462,2 49.338,4.53 49.895,7.836 C48.493,7.446 47.366,6.344 46.999,4.873 L46.969,4.754 C46.881,4.405 46.612,4.131 46.265,4.036 C45.921,3.938 45.548,4.037 45.293,4.293 L42.794,6.792 C42.026,7.56 40.963,8 39.878,8 L36.08,8 C36.568,4.614 39.481,2 43,2 Z M36.075,10 L39.878,10 C41.514,10 43.052,9.363 44.208,8.206 L45.617,6.798 C46.499,8.43 48.089,9.571 49.933,9.896 C49.615,12.384 48,14.523 45.624,15.486 C45.247,15.64 45,16.006 45,16.413 L45,17.28 L43,17.947 L41,17.28 L41,16.413 C41,16.006 40.753,15.64 40.376,15.486 C38.032,14.537 36.424,12.444 36.075,10 Z M39.839,19 L41.149,19.437 L39.873,20.713 L38,19.465 L38,19 L39.839,19 Z" id="Shape"></path>
                </g>
            </g>
        </g>
    </g>
</svg>