<?xml version="1.0" encoding="UTF-8"?>
<svg width="14px" height="15px" viewBox="0 0 14 15" version="1.1" xmlns="http://www.w3.org/2000/svg" xmlns:xlink="http://www.w3.org/1999/xlink">
    <!-- Generator: sketchtool 52.6 (67491) - http://www.bohemiancoding.com/sketch -->
    <title>93B3F5C0-EB78-43EC-90CC-38AD0D7DDC71</title>
    <desc>Created with sketchtool.</desc>
    <g id="Desktop" stroke="none" stroke-width="1" fill="none" fill-rule="evenodd">
        <g id="Subpage---Internet-Musteri-Hizmetleri-1" transform="translate(-152.000000, -620.000000)" fill="#D60A29" fill-rule="nonzero">
            <g id="1" transform="translate(135.000000, 174.000000)">
                <g id="text" transform="translate(17.000000, 350.000000)">
                    <path d="M6.40217391,101.206522 L1.81521739,101.206522 L1.81521739,103.532609 L6.40217391,103.532609 L6.40217391,101.206522 Z M12.0543478,103.532609 L12.0543478,101.206522 L7.4673913,101.206522 L7.4673913,103.532609 L12.0543478,103.532609 Z M6.40217391,104.597826 L2.94565217,104.597826 L2.94565217,109.184783 L6.40217391,109.184783 L6.40217391,104.597826 Z M10.923913,109.184783 L10.923913,104.597826 L7.4673913,104.597826 L7.4673913,109.184783 L10.923913,109.184783 Z M13.1195652,100.141304 L13.1195652,104.597826 L11.9891304,104.597826 L11.9891304,110.25 L1.88043478,110.25 L1.88043478,104.597826 L0.75,104.597826 L0.75,100.141304 L3.31416775,100.141304 C3.11228066,99.8205288 3.01086957,99.4301114 3.01086957,98.9782609 C3.01086957,97.7493908 4.01026033,96.75 5.23913043,96.75 C6.02007218,96.75 6.57628841,97.1101683 6.93478261,97.7100019 C7.2932768,97.1101683 7.84949304,96.75 8.63043478,96.75 C9.85930488,96.75 10.8586957,97.7493908 10.8586957,98.9782609 C10.8586957,99.4301114 10.7572846,99.8205288 10.5553975,100.141304 L13.1195652,100.141304 Z M5.23913043,97.8152174 C4.59804945,97.8152174 4.07608696,98.3371799 4.07608696,98.9782609 C4.07608696,99.8505559 4.61216791,100.104856 6.39418854,100.137325 C6.34159929,98.5457867 6.01571158,97.8152174 5.23913043,97.8152174 Z M9.79347826,98.9782609 C9.79347826,98.3371799 9.27151577,97.8152174 8.63043478,97.8152174 C7.85385363,97.8152174 7.52796593,98.5457867 7.47537668,100.137325 C9.25739731,100.104856 9.79347826,99.8505559 9.79347826,98.9782609 Z" id="icon/gift"></path>
                </g>
            </g>
        </g>
    </g>
</svg>