<?xml version="1.0" encoding="UTF-8"?>
<svg width="64px" height="58px" viewBox="0 0 64 58" version="1.1" xmlns="http://www.w3.org/2000/svg" xmlns:xlink="http://www.w3.org/1999/xlink">
    <!-- Generator: sketchtool 52.5 (67469) - http://www.bohemiancoding.com/sketch -->
    <title>39C39EC7-BC4B-4545-80A0-D7CC0958A27E</title>
    <desc>Created with sketchtool.</desc>
    <g id="Desktop" stroke="none" stroke-width="1" fill="none" fill-rule="evenodd">
        <g id="Subpage-5.3" transform="translate(-188.000000, -798.000000)" fill="#5E2F8C" fill-rule="nonzero">
            <g id="Group-6" transform="translate(135.000000, 767.000000)">
                <path d="M54.3181934,31.0015934 C53.6031625,31.0687706 52.996915,31.7356249 53.0000118,32.4515536 L53.0000118,57.1008764 C53.000088,57.860053 53.6929798,58.5507604 54.454557,58.5508365 L115.545455,58.5508365 C116.307032,58.5507604 116.999924,57.860053 117,57.1008764 L117,32.4515536 C116.999924,31.692377 116.307032,31.0016693 115.545455,31.0015934 L54.454557,31.0015934 C54.4091358,30.9994689 54.3636146,30.9994689 54.3181934,31.0015934 Z M55.9091022,33.9015137 L114.09091,33.9015137 L114.09091,55.6509162 L55.9091022,55.6509162 L55.9091022,33.9015137 Z M78.9772797,36.076454 C78.2862064,36.1743285 77.7204102,36.8306348 77.72728,37.5264142 L77.72728,52.0260158 C77.7282254,53.0120467 78.9590688,53.7640396 79.8409159,53.3173866 L94.3863678,46.0675858 C94.8725015,45.8306195 95.2020346,45.3043231 95.2020346,44.7648872 C95.2020346,44.2254512 94.8725015,43.6991548 94.3863678,43.4621886 L79.8409159,36.2123878 C79.5759087,36.0808974 79.2700361,36.0327536 78.9772797,36.076454 Z M80.6363703,39.8825994 L90.4545504,44.776215 L80.6363703,49.6698305 L80.6363703,39.8825994 Z M65.3636459,60.7257768 C61.7662233,60.7257768 58.8181926,63.664991 58.8181926,67.2505975 C58.8181926,70.8361315 61.7661978,73.7527626 65.3636459,73.7527626 C68.961094,73.7527626 71.9090992,70.8361315 71.9090992,67.2505975 C71.9090992,63.664991 68.9610685,60.7257768 65.3636459,60.7257768 Z M85.0000059,60.7257768 C81.4025833,60.7257768 78.4545526,63.664991 78.4545526,67.2505975 C78.4545526,70.8361315 81.4025578,73.7527626 85.0000059,73.7527626 C88.597454,73.7527626 91.5454592,70.8361315 91.5454592,67.2505975 C91.5454592,63.664991 88.5974285,60.7257768 85.0000059,60.7257768 Z M104.636366,60.7257768 C101.038943,60.7257768 98.0909126,63.664991 98.0909126,67.2505975 C98.0909126,70.8361315 101.038918,73.7527626 104.636366,73.7527626 C108.233814,73.7527626 111.181819,70.8361315 111.181819,67.2505975 C111.181819,63.664991 108.233789,60.7257768 104.636366,60.7257768 Z M65.3636459,63.6256971 C67.3894848,63.6256971 69.0000089,65.232833 69.0000089,67.2505975 C69.0000089,69.2682896 67.3894593,70.8528423 65.3636459,70.8528423 C63.3378324,70.8528423 61.7272829,69.2682896 61.7272829,67.2505975 C61.7272829,65.232833 63.337807,63.6256971 65.3636459,63.6256971 Z M85.0000059,63.6256971 C87.0258448,63.6256971 88.6363689,65.232833 88.6363689,67.2505975 C88.6363689,69.2682896 87.0258194,70.8528423 85.0000059,70.8528423 C82.9741925,70.8528423 81.3636429,69.2682896 81.3636429,67.2505975 C81.3636429,65.232833 82.974167,63.6256971 85.0000059,63.6256971 Z M104.636366,63.6256971 C106.662205,63.6256971 108.272729,65.232833 108.272729,67.2505975 C108.272729,69.2682896 106.662179,70.8528423 104.636366,70.8528423 C102.610552,70.8528423 101.000003,69.2682896 101.000003,67.2505975 C101.000003,65.232833 102.610527,63.6256971 104.636366,63.6256971 Z M65.3636459,75.2253784 C58.5526312,75.2253784 53.0000118,80.7604564 53.0000118,87.5500398 C53.000088,88.3092165 53.6929798,88.9999239 54.454557,89 L115.545455,89 C116.307032,88.9999239 116.999924,88.3092165 117,87.5500398 C117,80.7604564 111.447381,75.2253784 104.636366,75.2253784 C100.629625,75.2253784 97.0576495,77.1374648 94.7954586,80.0963384 C92.532438,77.1585494 88.9894481,75.2253784 85.0000059,75.2253784 C80.9991594,75.2253784 77.4438858,77.1668584 75.1818259,80.118994 C72.9245165,77.1565557 69.3708815,75.2253784 65.3636459,75.2253784 Z M65.3636459,78.1252988 C68.9000911,78.1252988 71.9541625,80.0498715 73.5681898,82.9056362 C73.1539332,83.9118273 72.8607252,84.9827462 72.7272809,86.1000797 L56.0454658,86.1000797 C56.7456991,81.5769289 60.6236802,78.1252988 65.3636459,78.1252988 Z M85.0000059,78.1252988 C89.7399716,78.1252988 93.6179527,81.5769289 94.318186,86.1000797 L75.6818258,86.1000797 C76.3820591,81.5769289 80.2600402,78.1252988 85.0000059,78.1252988 Z M104.636366,78.1252988 C109.376332,78.1252988 113.254313,81.5769289 113.954546,86.1000797 L97.2727309,86.1000797 C97.1392866,84.9827462 96.8460786,83.9118273 96.431822,82.9056362 C98.0478937,80.050126 101.100072,78.1252988 104.636366,78.1252988 Z" id="icon/herkese_gore_icerik"></path>
            </g>
        </g>
    </g>
</svg>